# xmcd
#
# Track frame offsets: 
#        150
#        15994
#        30552
#        53338
#        70507
#        89189
#        107289
#        125614
#        147098
#        166915
#        184721
#        197673
#        214647
#        236310
#        253394
#        267257
#        279299
#        299301
#        312946
#
# Disc length: 4419 seconds
#
# Revision: 0
# Processed by: cddbd v1.5.2PL0 Copyright (c) Steve Scherf et al.
# Submitted via: ExactAudioCopyFreeDBPlugin 1.0
#
DISCID=03114113
DTITLE=Вячеслав Малежик - Грустная история
DYEAR=2002
DGENRE=Pop
TTITLE0=200 лет
TTITLE1=Улочки-переулочки
TTITLE2=Любовь из-за угла
TTITLE3=Вячеслав Малежик и Екатерина Семёнова - Первая любовь
TTITLE4=Грустная история
TTITLE5=Дебри Занзибара
TTITLE6=Пять летнихдней (Гагра)
TTITLE7=Медленный рассвет
TTITLE8=Лето навсегда
TTITLE9=Пей-гуляй
TTITLE10=Я и лицо твоё не помню...
TTITLE11=Девушка по имени Китай
TTITLE12=Больше чем любовь
TTITLE13=Верните мне лето
TTITLE14=Липонька
TTITLE15=Один на льдине
TTITLE16=Моя вина
TTITLE17=Жду приказа
TTITLE18=Отцу
EXTD=
EXTT0=
EXTT1=
EXTT2=
EXTT3=
EXTT4=
EXTT5=
EXTT6=
EXTT7=
EXTT8=
EXTT9=
EXTT10=
EXTT11=
EXTT12=
EXTT13=
EXTT14=
EXTT15=
EXTT16=
EXTT17=
EXTT18=
PLAYORDER=
